<svg width="825" height="94" viewBox="0 0 825 94" fill="none" xmlns="http://www.w3.org/2000/svg">
<path d="M52.9795 93.2799C45.4702 93.2799 38.5155 92.1706 32.1155 89.9519C25.7155 87.7333 20.0835 84.5759 15.2195 80.4799C10.4408 76.2986 6.72884 71.3919 4.08351 65.7599C1.43818 60.0426 0.115509 53.7279 0.115509 46.8159C0.115509 40.0746 1.48084 33.8879 4.21151 28.2559C6.94218 22.6239 10.6968 17.7172 15.4755 13.5359C20.2542 9.35458 25.8435 6.15458 32.2435 3.93591C38.7288 1.71724 45.6835 0.60791 53.1075 0.60791C58.3982 0.60791 63.4755 1.24791 68.3395 2.52791C73.2888 3.72257 77.8542 5.38658 82.0355 7.51991C86.3022 9.56791 89.8862 11.9146 92.7875 14.5599L80.1155 31.3279C77.8968 29.3652 75.4222 27.5732 72.6915 25.9519C69.9608 24.3306 66.8888 23.0506 63.4755 22.1119C60.0622 21.1732 56.2222 20.7039 51.9555 20.7039C48.2008 20.7039 44.5742 21.3012 41.0755 22.4959C37.6622 23.6052 34.5048 25.2692 31.6035 27.4879C28.7875 29.7066 26.5688 32.4799 24.9475 35.8079C23.3262 39.1359 22.5155 42.8906 22.5155 47.0719C22.5155 51.2532 23.3688 55.0079 25.0755 58.3359C26.7822 61.6639 29.1288 64.4372 32.1155 66.6559C35.1022 68.8746 38.5155 70.5813 42.3555 71.7759C46.2808 72.8853 50.3768 73.4399 54.6435 73.4399C58.9102 73.4399 62.7502 72.8853 66.1635 71.7759C69.5768 70.5813 72.6062 69.1306 75.2515 67.4239C77.9822 65.6319 80.3715 63.9679 82.4195 62.4319L92.6595 79.1999C90.2702 81.3332 87.0275 83.5092 82.9315 85.7279C78.8355 87.8612 74.2275 89.6532 69.1075 91.1039C63.9875 92.5546 58.6115 93.2799 52.9795 93.2799Z" fill="black"/>
<path d="M109.829 91.9999L151.813 2.39991H171.781L213.509 91.9999H191.109L167.301 41.0559C166.533 39.1786 165.722 37.3439 164.869 35.5519C164.101 33.7599 163.375 32.0106 162.693 30.3039C162.095 28.5972 161.498 26.8906 160.901 25.1839C160.303 23.3919 159.749 21.6426 159.237 19.9359L163.845 19.8079C163.247 21.6852 162.65 23.5199 162.053 25.3119C161.455 27.1039 160.773 28.8532 160.005 30.5599C159.322 32.2666 158.597 34.0159 157.829 35.8079C157.061 37.5146 156.25 39.3066 155.397 41.1839L131.717 91.9999H109.829ZM129.413 75.7439L136.453 59.3599H186.629L190.597 75.7439H129.413Z" fill="black"/>
<path d="M238.507 91.9999V2.39991H287.275C294.016 2.39991 299.819 3.59458 304.683 5.98391C309.632 8.37324 313.429 11.7012 316.075 15.9679C318.805 20.2346 320.171 25.2266 320.171 30.9439C320.171 36.7466 318.72 41.9092 315.819 46.4319C312.917 50.9546 308.949 54.5386 303.915 57.1839C298.965 59.7439 293.419 61.0239 287.275 61.0239H259.243V91.9999H238.507ZM299.819 91.9999L271.531 51.5519L294.187 48.3519L325.035 91.9999H299.819ZM259.243 44.3839H284.971C287.36 44.3839 289.579 43.8719 291.627 42.8479C293.675 41.8239 295.296 40.3732 296.491 38.4959C297.685 36.6186 298.283 34.5279 298.283 32.2239C298.283 29.8346 297.643 27.7866 296.363 26.0799C295.168 24.2879 293.504 22.9226 291.371 21.9839C289.237 21.0452 286.848 20.5759 284.203 20.5759H259.243V44.3839Z" fill="black"/>
<path d="M425.987 91.9999V2.39991H447.747V91.9999H425.987ZM357.507 91.9999V2.39991H379.267V91.9999H357.507ZM365.954 57.4399L366.211 37.9839H437.507V57.4399H365.954Z" fill="black"/>
<path d="M529.663 92.7679C520.703 92.7679 512.853 91.0186 506.112 87.5199C499.456 83.9359 494.25 79.0292 490.496 72.7999C486.741 66.5706 484.863 59.4452 484.863 51.4239V2.39991H506.88V50.7839C506.88 55.2212 507.861 59.1466 509.824 62.5599C511.786 65.9732 514.474 68.6612 517.887 70.6239C521.386 72.5012 525.311 73.4399 529.663 73.4399C534.186 73.4399 538.197 72.5012 541.696 70.6239C545.28 68.6612 548.096 65.9732 550.144 62.5599C552.192 59.1466 553.216 55.2212 553.216 50.7839V2.39991H574.464V51.4239C574.464 59.4452 572.586 66.5706 568.832 72.7999C565.077 79.0292 559.829 83.9359 553.087 87.5199C546.346 91.0186 538.538 92.7679 529.663 92.7679Z" fill="black"/>
<path d="M611.632 91.9999V2.39991H632.112L691.888 66.3999L688.688 65.7599C688.176 62.6026 687.749 59.6159 687.408 56.7999C687.152 53.8986 686.938 51.1252 686.767 48.4799C686.597 45.8346 686.426 43.2319 686.256 40.6719C686.17 38.1119 686.128 35.5092 686.128 32.8639C686.128 30.1332 686.128 27.3599 686.128 24.5439V2.39991H707.248V91.9999H686.512L624.688 25.9519L630.191 26.8479C630.533 28.8959 630.789 30.9012 630.96 32.8639C631.216 34.8266 631.472 36.8746 631.728 39.0079C631.984 41.0559 632.197 43.2319 632.368 45.5359C632.538 47.8399 632.624 50.3572 632.624 53.0879C632.709 55.8186 632.751 58.8052 632.751 62.0479V91.9999H611.632Z" fill="black"/>
<path d="M769.324 91.9999V21.5999H736.3V2.39991H824.876V21.5999H791.084V91.9999H769.324Z" fill="black"/>
</svg>
